<svg xmlns="http://www.w3.org/2000/svg" viewBox="0 0 448 204">
  <path fill="#FFF" fill-rule="evenodd" d="M813.375,589.437 L807.445,589.437 L807.445,577.564 L813.375,577.564 C817.327,577.564 819.736,579.989 819.736,583.469 C819.736,586.951 817.327,589.437 813.375,589.437 L813.375,589.437 Z M813.622,569.794 L798.366,569.794 L798.366,613.307 L807.445,613.307 L807.445,597.208 L813.622,597.208 C822.948,597.208 829.001,591.799 829.001,583.469 C829.001,575.14 822.948,569.794 813.622,569.794 L813.622,569.794 Z M756.549,588.816 L751.052,588.816 L751.052,577.316 L756.549,577.316 C760.255,577.316 762.664,579.677 762.664,583.097 C762.664,586.454 760.255,588.816 756.549,588.816 L756.549,588.816 Z M772.052,583.035 C772.052,575.14 766.369,569.794 757.043,569.794 L741.973,569.794 L741.973,613.307 L751.052,613.307 L751.052,596.337 L753.028,596.337 L763.528,613.307 L774.151,613.307 L762.849,595.467 C768.47,593.726 772.052,589.189 772.052,583.035 L772.052,583.035 Z M695.09,605.413 C687.802,605.413 682.058,599.072 682.058,591.426 C682.058,583.842 687.802,577.564 695.09,577.564 C702.378,577.564 708.061,583.842 708.061,591.426 C708.061,599.072 702.378,605.413 695.09,605.413 L695.09,605.413 Z M695.09,568.986 C682.737,568.986 672.731,579.056 672.731,591.426 C672.731,603.734 682.737,613.991 695.09,613.991 C707.443,613.991 717.448,603.734 717.448,591.426 C717.448,579.056 707.443,568.986 695.09,568.986 L695.09,568.986 Z M631.407,605.413 C624.057,605.413 618.313,599.072 618.313,591.426 C618.313,583.842 624.057,577.564 631.407,577.564 C636.595,577.564 640.98,580.796 643.266,585.521 L650.801,580.113 C646.91,573.461 639.684,568.986 631.407,568.986 C618.993,568.986 608.987,579.056 608.987,591.426 C608.987,603.734 618.993,613.991 631.407,613.991 C639.869,613.991 647.281,609.205 651.11,602.243 L643.451,597.083 C641.166,602.056 636.719,605.413 631.407,605.413 L631.407,605.413 Z M878.225,493.802 L890.659,461.166 L903.263,493.802 L878.225,493.802 Z M891.164,410.024 L890.659,410.024 L849.108,512.146 L910.478,512.146 L910.478,512.307 L910.488,512.307 L917.714,531.148 L943.255,531.148 L891.164,410.024 Z M820.036,518.002 L820.036,462.824 L773.394,462.824 L773.094,483.684 L796.343,483.684 L796.343,502.525 C790.63,506.563 782.396,508.582 773.826,508.582 C753.83,508.582 737.698,491.927 737.698,470.73 C737.698,449.87 753.661,433.215 773.826,433.215 C785.084,433.215 794.831,437.926 800.208,443.982 L815.331,425.141 C806.761,416.056 790.966,410 773.826,410 C739.379,410 712.325,437.421 712.325,470.73 C712.325,504.881 739.379,531.797 773.826,531.797 C792.646,531.797 809.114,526.078 820.036,518.002 L820.036,518.002 Z M634.093,493.802 L646.528,461.166 L659.13,493.802 L634.093,493.802 Z M699.123,531.148 L647.032,410.024 L646.528,410.024 L604.977,512.146 L666.347,512.146 L666.347,512.307 L666.356,512.307 L673.582,531.148 L699.123,531.148 Z M547.251,459.291 L542.882,457.945 C530.783,453.908 524.902,450.207 524.902,443.478 C524.902,436.916 530.111,430.692 540.361,430.692 C549.603,430.692 555.82,435.571 559.182,443.309 L578.841,432.038 C571.952,417.57 557.165,410 540.529,410 C518.181,410 500.537,424.804 500.537,444.992 C500.537,463.833 512.635,473.59 532.127,479.815 L536.665,481.161 C551.283,485.871 555.989,490.413 555.989,497.647 C555.989,505.722 549.099,511.273 538.849,511.273 C528.599,511.273 520.869,505.217 516.332,495.124 L496,505.722 C503.729,523.386 519.356,531.965 538.849,531.965 C563.214,531.965 580.354,517.834 580.354,496.806 C580.354,477.964 569.936,466.525 547.251,459.291 L547.251,459.291 Z" transform="translate(-496 -410)"/>
</svg>
